<svg width="17" height="16" viewBox="0 0 17 16" fill="none" xmlns="http://www.w3.org/2000/svg">
<path fill-rule="evenodd" clip-rule="evenodd" d="M11.0677 8.00016C11.0677 9.47292 9.8738 10.6668 8.40104 10.6668C6.92828 10.6668 5.73438 9.47292 5.73438 8.00016C5.73438 6.5274 6.92828 5.3335 8.40104 5.3335C9.8738 5.3335 11.0677 6.5274 11.0677 8.00016ZM9.73438 8.00016C9.73438 8.73654 9.13742 9.3335 8.40104 9.3335C7.66466 9.3335 7.06771 8.73654 7.06771 8.00016C7.06771 7.26378 7.66466 6.66683 8.40104 6.66683C9.13742 6.66683 9.73438 7.26378 9.73438 8.00016Z" fill="#FCFCFD"/>
<path fill-rule="evenodd" clip-rule="evenodd" d="M15.0677 8.00016C15.0677 11.6821 12.0829 14.6668 8.40104 14.6668C4.71914 14.6668 1.73438 11.6821 1.73438 8.00016C1.73438 4.31826 4.71914 1.3335 8.40104 1.3335C12.0829 1.3335 15.0677 4.31826 15.0677 8.00016ZM13.7344 8.00016C13.7344 10.9457 11.3466 13.3335 8.40104 13.3335C5.45552 13.3335 3.06771 10.9457 3.06771 8.00016C3.06771 5.05464 5.45552 2.66683 8.40104 2.66683C11.3466 2.66683 13.7344 5.05464 13.7344 8.00016Z" fill="#FCFCFD"/>
<path d="M4.43543 3.12253C4.55187 2.77324 4.92941 2.58446 5.27871 2.7009L7.27871 3.36756C7.628 3.48399 7.81678 3.86154 7.70034 4.21084C7.58391 4.56013 7.20637 4.74891 6.85707 4.63247L4.85707 3.96581C4.50778 3.84938 4.319 3.47183 4.43543 3.12253Z" fill="#FCFCFD"/>
<path d="M4.47157 7.03517C4.63623 6.70585 5.03668 6.57237 5.366 6.73703L6.69933 7.4037C7.02865 7.56836 7.16213 7.96881 6.99747 8.29813C6.83281 8.62744 6.43236 8.76093 6.10305 8.59627L4.76971 7.9296C4.44039 7.76494 4.30691 7.36449 4.47157 7.03517Z" fill="#FCFCFD"/>
<path d="M9.53928 13.1381C9.79963 12.8777 9.79963 12.4556 9.53928 12.1953C9.27893 11.9349 8.85682 11.9349 8.59647 12.1953L7.59647 13.1953C7.33612 13.4556 7.33612 13.8777 7.59647 14.1381C7.85682 14.3984 8.27893 14.3984 8.53928 14.1381L9.53928 13.1381Z" fill="#FCFCFD"/>
<path d="M9.59647 9.19526C9.85682 8.93491 10.2789 8.93491 10.5393 9.19526L10.8726 9.52859C11.133 9.78894 11.133 10.2111 10.8726 10.4714C10.6123 10.7318 10.1901 10.7318 9.9298 10.4714L9.59647 10.1381C9.33612 9.87772 9.33612 9.45561 9.59647 9.19526Z" fill="#FCFCFD"/>
<path d="M5.66414 10.9648C5.8288 10.6355 5.69532 10.235 5.366 10.0704C5.03668 9.90571 4.63623 10.0392 4.47157 10.3685L3.8049 11.7018C3.64024 12.0312 3.77373 12.4316 4.10305 12.5963C4.43236 12.7609 4.83281 12.6274 4.99747 12.2981L5.66414 10.9648Z" fill="#FCFCFD"/>
<path d="M14.9975 7.70184C15.1621 8.03116 15.0287 8.43161 14.6993 8.59627L13.366 9.26293C13.0367 9.42759 12.6362 9.29411 12.4716 8.96479C12.3069 8.63547 12.4404 8.23502 12.7697 8.07036L14.103 7.4037C14.4324 7.23904 14.8328 7.37252 14.9975 7.70184Z" fill="#FCFCFD"/>
<path d="M11.0337 5.54417C11.1501 5.19487 10.9613 4.81733 10.612 4.7009C10.2627 4.58446 9.8852 4.77324 9.76877 5.12253L9.43543 6.12253C9.319 6.47183 9.50778 6.84937 9.85707 6.96581C10.2064 7.08224 10.5839 6.89347 10.7003 6.54417L11.0337 5.54417Z" fill="#FCFCFD"/>
</svg>
