<svg width="25" height="24" viewBox="0 0 25 24" fill="none" xmlns="http://www.w3.org/2000/svg">
<path fill-rule="evenodd" clip-rule="evenodd" d="M12.4004 4C10.4482 4 8.64855 4.161 7.2041 4.35177C5.90411 4.52346 4.92385 5.50372 4.75217 6.80371C4.5614 8.24816 4.40039 10.0478 4.40039 12C4.40039 13.9522 4.5614 15.7518 4.75217 17.1963C4.92385 18.4963 5.90411 19.4765 7.2041 19.6482C8.64855 19.839 10.4482 20 12.4004 20C14.3526 20 16.1522 19.839 17.5967 19.6482C18.8967 19.4765 19.8769 18.4963 20.0486 17.1963C20.2394 15.7518 20.4004 13.9522 20.4004 12C20.4004 10.0478 20.2394 8.24816 20.0486 6.80371C19.8769 5.50372 18.8967 4.52346 17.5967 4.35177C16.1522 4.16101 14.3526 4 12.4004 4ZM6.94223 2.36899C4.74543 2.65912 3.05952 4.34504 2.76938 6.54184C2.56992 8.05208 2.40039 9.94127 2.40039 12C2.40039 14.0587 2.56992 15.9479 2.76938 17.4582C3.05951 19.655 4.74543 21.3409 6.94223 21.631C8.45247 21.8305 10.3417 22 12.4004 22C14.4591 22 16.3483 21.8305 17.8586 21.631C20.0553 21.3409 21.7413 19.655 22.0314 17.4582C22.2309 15.9479 22.4004 14.0587 22.4004 12C22.4004 9.94127 22.2309 8.05208 22.0314 6.54184C21.7413 4.34504 20.0553 2.65912 17.8586 2.36899C16.3483 2.16953 14.4591 2 12.4004 2C10.3417 2 8.45247 2.16953 6.94223 2.36899Z" fill="#777E91"/>
<path fill-rule="evenodd" clip-rule="evenodd" d="M12.4004 17C12.9527 17 13.4004 16.5523 13.4004 16V13H16.4004C16.9527 13 17.4004 12.5523 17.4004 12C17.4004 11.4477 16.9527 11 16.4004 11H13.4004V8C13.4004 7.44772 12.9527 7 12.4004 7C11.8481 7 11.4004 7.44772 11.4004 8V11H8.40039C7.84811 11 7.40039 11.4477 7.40039 12C7.40039 12.5523 7.84811 13 8.40039 13H11.4004V16C11.4004 16.5523 11.8481 17 12.4004 17Z" fill="#777E91"/>
</svg>
