<svg width="17" height="16" viewBox="0 0 17 16" fill="none" xmlns="http://www.w3.org/2000/svg">
<path fill-rule="evenodd" clip-rule="evenodd" d="M8.19987 14.6668C11.8818 14.6668 14.8665 11.6821 14.8665 8.00016C14.8665 4.31826 11.8818 1.3335 8.19987 1.3335C4.51797 1.3335 1.5332 4.31826 1.5332 8.00016C1.5332 11.6821 4.51797 14.6668 8.19987 14.6668ZM12.4131 11.2706C13.1151 10.3675 13.5332 9.23266 13.5332 8.00016C13.5332 5.28042 11.4974 3.03616 8.86654 2.70809V5.41751C10.0167 5.71354 10.8665 6.7576 10.8665 8.00016C10.8665 8.49473 10.7319 8.95785 10.4973 9.35487L12.4131 11.2706ZM11.4702 12.2134L9.55445 10.2977C9.15746 10.5322 8.69438 10.6668 8.19987 10.6668C7.70536 10.6668 7.24228 10.5322 6.84529 10.2977L4.9295 12.2134C5.83261 12.9155 6.96742 13.3335 8.19987 13.3335C9.43232 13.3335 10.5671 12.9155 11.4702 12.2134ZM5.5332 8.00016C5.5332 8.49473 5.66784 8.95785 5.90245 9.35487L3.98668 11.2706C3.28461 10.3675 2.86654 9.23266 2.86654 8.00016C2.86654 5.28042 4.90233 3.03616 7.5332 2.70809V5.41751C6.38305 5.71354 5.5332 6.7576 5.5332 8.00016ZM8.19987 9.3335C8.93625 9.3335 9.5332 8.73654 9.5332 8.00016C9.5332 7.26378 8.93625 6.66683 8.19987 6.66683C7.46349 6.66683 6.86654 7.26378 6.86654 8.00016C6.86654 8.73654 7.46349 9.3335 8.19987 9.3335Z" fill="#FCFCFD"/>
</svg>
