<svg width="16" height="16" viewBox="0 0 16 16" fill="none" xmlns="http://www.w3.org/2000/svg">
<path d="M8.00065 1.33325C7.63246 1.33325 7.33398 1.63173 7.33398 1.99992V3.99992C7.33398 4.36811 7.63246 4.66659 8.00065 4.66659C8.36884 4.66659 8.66732 4.36811 8.66732 3.99992V1.99992C8.66732 1.63173 8.36884 1.33325 8.00065 1.33325Z" fill="#FCFCFD"/>
<path d="M8.00065 11.3333C7.63246 11.3333 7.33398 11.6317 7.33398 11.9999V13.9999C7.33398 14.3681 7.63246 14.6666 8.00065 14.6666C8.36884 14.6666 8.66732 14.3681 8.66732 13.9999V11.9999C8.66732 11.6317 8.36884 11.3333 8.00065 11.3333Z" fill="#FCFCFD"/>
<path d="M14.0007 7.33325C14.3688 7.33325 14.6673 7.63173 14.6673 7.99992C14.6673 8.36811 14.3688 8.66659 14.0007 8.66659H12.0007C11.6325 8.66659 11.334 8.36811 11.334 7.99992C11.334 7.63173 11.6325 7.33325 12.0007 7.33325H14.0007Z" fill="#FCFCFD"/>
<path d="M4.66732 7.99992C4.66732 7.63173 4.36884 7.33325 4.00065 7.33325H2.00065C1.63246 7.33325 1.33398 7.63173 1.33398 7.99992C1.33398 8.36811 1.63246 8.66659 2.00065 8.66659H4.00065C4.36884 8.66659 4.66732 8.36811 4.66732 7.99992Z" fill="#FCFCFD"/>
<path d="M11.7719 3.28594C12.0323 3.02559 12.4544 3.02559 12.7147 3.28594C12.9751 3.54629 12.9751 3.9684 12.7147 4.22875L11.3005 5.64296C11.0402 5.90331 10.6181 5.90331 10.3577 5.64296C10.0974 5.38261 10.0974 4.9605 10.3577 4.70015L11.7719 3.28594Z" fill="#FCFCFD"/>
<path d="M5.64361 10.3569C5.38326 10.0966 4.96115 10.0966 4.7008 10.3569L3.28658 11.7711C3.02623 12.0315 3.02623 12.4536 3.28658 12.7139C3.54693 12.9743 3.96904 12.9743 4.22939 12.7139L5.64361 11.2997C5.90395 11.0394 5.90395 10.6173 5.64361 10.3569Z" fill="#FCFCFD"/>
<path d="M12.7147 11.7712C12.9751 12.0315 12.9751 12.4536 12.7147 12.714C12.4544 12.9743 12.0323 12.9743 11.7719 12.714L10.3577 11.2998C10.0973 11.0394 10.0973 10.6173 10.3577 10.357C10.618 10.0966 11.0401 10.0966 11.3005 10.357L12.7147 11.7712Z" fill="#FCFCFD"/>
<path d="M5.64367 5.64287C5.90402 5.38252 5.90402 4.96041 5.64367 4.70006L4.22945 3.28585C3.9691 3.0255 3.54699 3.0255 3.28664 3.28585C3.0263 3.5462 3.0263 3.96831 3.28664 4.22866L4.70086 5.64287C4.96121 5.90322 5.38332 5.90322 5.64367 5.64287Z" fill="#FCFCFD"/>
</svg>
