<svg width="16" height="16" viewBox="0 0 16 16" fill="none" xmlns="http://www.w3.org/2000/svg">
<path d="M11.9891 9.67114C12.0041 9.92065 12.2646 10.0889 12.4764 9.9561C13.7918 9.13082 14.6663 7.66762 14.6663 6.00016C14.6663 3.42283 12.577 1.3335 9.99966 1.3335C8.33221 1.3335 6.86901 2.20803 6.04372 3.52345C5.91088 3.73519 6.07918 3.9957 6.32869 4.0107C9.31258 4.19009 11.8097 6.68983 11.9891 9.67114Z" fill="#3772FF"/>
<path d="M10.6663 10.0002C10.6663 12.5775 8.577 14.6668 5.99967 14.6668C3.42235 14.6668 1.33301 12.5775 1.33301 10.0002C1.33301 7.42283 3.42235 5.3335 5.99967 5.3335C8.577 5.3335 10.6663 7.42283 10.6663 10.0002Z" fill="#3772FF"/>
</svg>
