<svg width="16" height="16" viewBox="0 0 16 16" fill="none" xmlns="http://www.w3.org/2000/svg">
<path fill-rule="evenodd" clip-rule="evenodd" d="M7.99967 13.3335C10.9452 13.3335 13.333 10.9457 13.333 8.00016C13.333 5.05464 10.9452 2.66683 7.99967 2.66683C5.05416 2.66683 2.66634 5.05464 2.66634 8.00016C2.66634 10.9457 5.05416 13.3335 7.99967 13.3335ZM7.99967 14.6668C11.6816 14.6668 14.6663 11.6821 14.6663 8.00016C14.6663 4.31826 11.6816 1.3335 7.99967 1.3335C4.31778 1.3335 1.33301 4.31826 1.33301 8.00016C1.33301 11.6821 4.31778 14.6668 7.99967 14.6668Z" fill="#777E91"/>
<path fill-rule="evenodd" clip-rule="evenodd" d="M9.16478 12.1179C9.65725 11.133 10.0003 9.679 10.0003 8.00016C10.0003 6.32132 9.65725 4.86734 9.16478 3.8824C8.63243 2.81771 8.1437 2.66683 8.00033 2.66683C7.85696 2.66683 7.36822 2.81771 6.83587 3.8824C6.3434 4.86734 6.00033 6.32132 6.00033 8.00016C6.00033 9.679 6.3434 11.133 6.83587 12.1179C7.36822 13.1826 7.85696 13.3335 8.00033 13.3335C8.1437 13.3335 8.63243 13.1826 9.16478 12.1179ZM8.00033 14.6668C9.84127 14.6668 11.3337 11.6821 11.3337 8.00016C11.3337 4.31826 9.84127 1.3335 8.00033 1.3335C6.15938 1.3335 4.66699 4.31826 4.66699 8.00016C4.66699 11.6821 6.15938 14.6668 8.00033 14.6668Z" fill="#777E91"/>
<path fill-rule="evenodd" clip-rule="evenodd" d="M14.6334 8.66683C14.6552 8.44756 14.6663 8.22516 14.6663 8.00016C14.6663 7.77516 14.6552 7.55277 14.6334 7.3335H1.36592C1.34415 7.55277 1.33301 7.77516 1.33301 8.00016C1.33301 8.22516 1.34415 8.44756 1.36592 8.66683H14.6334Z" fill="#777E91"/>
</svg>
