<svg width="16" height="16" viewBox="0 0 16 16" fill="none" xmlns="http://www.w3.org/2000/svg">
<path fill-rule="evenodd" clip-rule="evenodd" d="M8.00016 2.66683C6.69867 2.66683 5.49894 2.77417 4.53597 2.90135C3.66931 3.01581 3.01581 3.66931 2.90135 4.53597C2.77417 5.49894 2.66683 6.69867 2.66683 8.00016C2.66683 9.30165 2.77417 10.5014 2.90135 11.4644C3.01581 12.331 3.66931 12.9845 4.53597 13.099C5.49894 13.2262 6.69867 13.3335 8.00016 13.3335C9.30165 13.3335 10.5014 13.2262 11.4644 13.099C12.331 12.9845 12.9845 12.331 13.099 11.4644C13.2262 10.5014 13.3335 9.30165 13.3335 8.00016C13.3335 6.69867 13.2262 5.49894 13.099 4.53597C12.9845 3.66931 12.331 3.01581 11.4644 2.90135C10.5014 2.77417 9.30165 2.66683 8.00016 2.66683ZM4.36139 1.57949C2.89686 1.77291 1.77291 2.89686 1.57949 4.36139C1.44652 5.36822 1.3335 6.62768 1.3335 8.00016C1.3335 9.37265 1.44652 10.6321 1.57949 11.6389C1.77291 13.1035 2.89686 14.2274 4.36139 14.4208C5.36822 14.5538 6.62768 14.6668 8.00016 14.6668C9.37265 14.6668 10.6321 14.5538 11.6389 14.4208C13.1035 14.2274 14.2274 13.1035 14.4208 11.6389C14.5538 10.6321 14.6668 9.37265 14.6668 8.00016C14.6668 6.62768 14.5538 5.36822 14.4208 4.36139C14.2274 2.89686 13.1035 1.77291 11.6389 1.57949C10.6321 1.44652 9.37265 1.3335 8.00016 1.3335C6.62768 1.3335 5.36822 1.44652 4.36139 1.57949Z" fill="#FCFCFD"/>
<path d="M5.99992 7.33317C6.7363 7.33317 7.33325 6.73622 7.33325 5.99984C7.33325 5.26346 6.7363 4.6665 5.99992 4.6665C5.26354 4.6665 4.66659 5.26346 4.66659 5.99984C4.66659 6.73622 5.26354 7.33317 5.99992 7.33317Z" fill="#FCFCFD"/>
<path d="M12.0808 8.47137L13.277 9.66758C13.2357 10.2917 13.1755 10.8709 13.109 11.3852L11.138 9.41418C10.8776 9.15382 10.4555 9.15383 10.1952 9.41417L8.74746 10.8619C7.96641 11.6429 6.70008 11.6429 5.91904 10.8619L5.80465 10.7475C5.5443 10.4872 5.1222 10.4872 4.86185 10.7475L3.2558 12.3536C3.06975 12.1013 2.94527 11.7985 2.90109 11.464C2.877 11.2816 2.85362 11.0907 2.83154 10.8922L3.91904 9.8047C4.70009 9.02365 5.96641 9.02365 6.74746 9.8047L6.86184 9.91908C7.12219 10.1794 7.5443 10.1794 7.80465 9.91908L9.25237 8.47137C10.0334 7.69032 11.2997 7.69032 12.0808 8.47137Z" fill="#FCFCFD"/>
</svg>
