<svg width="41" height="40" viewBox="0 0 41 40" fill="none" xmlns="http://www.w3.org/2000/svg">
<path fill-rule="evenodd" clip-rule="evenodd" d="M17.9988 18.3666C18.0233 18.8262 17.6706 19.2186 17.211 19.2431C16.5838 19.2766 16.087 19.3175 15.6988 19.3584C15.1774 19.4134 14.8606 19.7337 14.808 20.1943C14.7324 20.8557 14.6667 21.8565 14.6667 23.3334C14.6667 24.8103 14.7324 25.8111 14.808 26.4725C14.8607 26.934 15.1767 27.2533 15.6973 27.3082C16.609 27.4045 18.116 27.5001 20.5 27.5001C22.884 27.5001 24.391 27.4045 25.3027 27.3082C25.8233 27.2533 26.1393 26.934 26.192 26.4725C26.2676 25.8111 26.3333 24.8103 26.3333 23.3334C26.3333 21.8565 26.2676 20.8557 26.192 20.1943C26.1394 19.7337 25.8226 19.4134 25.3012 19.3584C24.913 19.3175 24.4162 19.2766 23.789 19.2431C23.3294 19.2186 22.9767 18.8262 23.0012 18.3666C23.0257 17.907 23.4181 17.5543 23.8777 17.5788C24.5301 17.6136 25.0558 17.6566 25.476 17.701C26.713 17.8314 27.6997 18.709 27.8479 20.005C27.9323 20.7436 28 21.8097 28 23.3334C28 24.8571 27.9323 25.9232 27.8479 26.6618C27.6998 27.9571 26.7154 28.8351 25.4776 28.9657C24.4933 29.0696 22.9257 29.1667 20.5 29.1667C18.0743 29.1667 16.5067 29.0696 15.5224 28.9657C14.2846 28.8351 13.3002 27.9571 13.1521 26.6618C13.0677 25.9232 13 24.8571 13 23.3334C13 21.8097 13.0677 20.7436 13.1521 20.005C13.3003 18.709 14.287 17.8314 15.524 17.701C15.9442 17.6566 16.4699 17.6136 17.1223 17.5788C17.5819 17.5543 17.9743 17.907 17.9988 18.3666Z" fill="#777E91"/>
<path fill-rule="evenodd" clip-rule="evenodd" d="M18.1726 15.1728C17.8472 15.4982 17.3195 15.4982 16.9941 15.1728C16.6686 14.8473 16.6686 14.3197 16.9941 13.9942L19.9107 11.0776C20.2362 10.7521 20.7638 10.7521 21.0893 11.0776L24.0059 13.9942C24.3314 14.3197 24.3314 14.8473 24.0059 15.1728C23.6805 15.4982 23.1528 15.4982 22.8274 15.1728L21.3333 13.6787V21.6668C21.3333 22.1271 20.9602 22.5002 20.5 22.5002C20.0398 22.5002 19.6667 22.1271 19.6667 21.6668V13.6787L18.1726 15.1728Z" fill="#777E91"/>
<rect x="1.5" y="1" width="38" height="38" rx="19" stroke="#353945" stroke-width="2"/>
</svg>
