<svg width="41" height="40" viewBox="0 0 41 40" fill="none" xmlns="http://www.w3.org/2000/svg">
<g clip-path="url(#clip0_21037_30428)">
<path d="M14.6667 18.3335C13.75 18.3335 13 19.0835 13 20.0002C13 20.9168 13.75 21.6668 14.6667 21.6668C15.5833 21.6668 16.3333 20.9168 16.3333 20.0002C16.3333 19.0835 15.5833 18.3335 14.6667 18.3335ZM26.3333 18.3335C25.4167 18.3335 24.6667 19.0835 24.6667 20.0002C24.6667 20.9168 25.4167 21.6668 26.3333 21.6668C27.25 21.6668 28 20.9168 28 20.0002C28 19.0835 27.25 18.3335 26.3333 18.3335ZM20.5 18.3335C19.5833 18.3335 18.8333 19.0835 18.8333 20.0002C18.8333 20.9168 19.5833 21.6668 20.5 21.6668C21.4167 21.6668 22.1667 20.9168 22.1667 20.0002C22.1667 19.0835 21.4167 18.3335 20.5 18.3335Z" fill="#777E91"/>
</g>
<rect x="1.5" y="1" width="38" height="38" rx="19" stroke="#353945" stroke-width="2"/>
<defs>
<clipPath id="clip0_21037_30428">
<rect width="20" height="20" fill="white" transform="translate(10.5 10)"/>
</clipPath>
</defs>
</svg>
